<svg id="fi_2124492" enable-background="new 0 0 497 497" height="512" viewBox="0 0 497 497" width="512" xmlns="http://www.w3.org/2000/svg"><path d="m396.462 165.667-147.962-28.616-147.962 28.616c-18.791 0-34.023 15.233-34.023 34.023v97.62c0 18.791 15.233 34.023 34.023 34.023l147.962 29.653 147.962-29.653c18.791 0 34.023-15.233 34.023-34.023v-97.62c.001-18.791-15.232-34.023-34.023-34.023z" fill="#8c5ac5"></path><path d="m130.538 331.334c-18.791 0-34.023-15.233-34.023-34.023v-97.62c0-18.791 15.233-34.023 34.023-34.023l132.962-25.716-15-2.901-147.962 28.616c-18.791 0-34.023 15.233-34.023 34.023v97.62c0 18.791 15.233 34.023 34.023 34.023l147.962 29.653 15-3.006z" fill="#6d36ab"></path><path d="m396.462 0h-295.924c-18.791 0-34.024 15.233-34.024 34.023v97.62c0 18.791 15.233 34.023 34.023 34.023h295.925c18.791 0 34.023-15.233 34.023-34.023v-97.62c.001-18.79-15.232-34.023-34.023-34.023z" fill="#bd9cde"></path><path d="m96.514 131.643v-97.62c0-18.79 15.233-34.023 34.024-34.023h-30c-18.791 0-34.024 15.233-34.024 34.024v97.62c0 18.791 15.233 34.023 34.023 34.023h30c-18.79 0-34.023-15.233-34.023-34.024z" fill="#8c5ac5"></path><circle cx="137.992" cy="82.833" fill="#00d7bd" r="24.191"></circle><g fill="#dbdbdb"><circle cx="245.995" cy="82.833" r="14.923"></circle><circle cx="304.705" cy="82.833" r="14.923"></circle><circle cx="363.416" cy="82.833" r="14.923"></circle></g><circle cx="137.992" cy="248.5" fill="#00d7bd" r="24.191"></circle><path d="m396.462 331.333h-295.924c-18.791 0-34.023 15.233-34.023 34.023v97.62c0 18.791 15.233 34.023 34.023 34.023h295.925c18.791 0 34.023-15.233 34.023-34.023v-97.62c0-18.79-15.233-34.023-34.024-34.023z" fill="#bd9cde"></path><path d="m96.514 462.977v-97.62c0-18.791 15.233-34.023 34.023-34.023h-30c-18.791 0-34.023 15.232-34.023 34.023v97.62c0 18.791 15.233 34.023 34.023 34.023h30c-18.79 0-34.023-15.233-34.023-34.023z" fill="#8c5ac5"></path><circle cx="137.992" cy="414.167" fill="#00d7bd" r="24.191"></circle><circle cx="245.995" cy="414.167" fill="#dbdbdb" r="14.923"></circle><circle cx="304.705" cy="414.167" fill="#dbdbdb" r="14.923"></circle><circle cx="363.416" cy="414.167" fill="#dbdbdb" r="14.923"></circle><path d="m231.829 256.04c-4.142 0-7.5-3.358-7.5-7.5v-11.865c0-4.142 3.358-7.5 7.5-7.5s7.5 3.358 7.5 7.5v11.865c0 4.142-3.358 7.5-7.5 7.5z" fill="#42394b"></path><path d="m296.685 263.757c-8.721 0-17.014-3.777-22.753-10.362-2.721-3.123-2.396-7.86.727-10.582 3.123-2.721 7.86-2.396 10.582.727 2.89 3.316 7.061 5.217 11.445 5.217s8.556-1.902 11.445-5.217c2.722-3.123 7.459-3.448 10.582-.727s3.448 7.459.727 10.582c-5.74 6.585-14.034 10.362-22.755 10.362z" fill="#42394b"></path><path d="m377.582 255.709c-4.142 0-7.5-3.358-7.5-7.5 0-3.446-2.804-6.25-6.25-6.25s-6.25 2.804-6.25 6.25c0 4.142-3.358 7.5-7.5 7.5s-7.5-3.358-7.5-7.5c0-11.717 9.533-21.25 21.25-21.25s21.25 9.533 21.25 21.25c0 4.142-3.358 7.5-7.5 7.5z" fill="#42394b"></path></svg>